<svg xmlns="http://www.w3.org/2000/svg" viewBox="0 0 776.26 224.74"><defs><style>.cls-1{fill:#bd0032;}</style></defs><title>NCNEWS LOGO RED-BLK</title><g id="Layer_2" data-name="Layer 2"><g id="Layer_1-2" data-name="Layer 1"><path class="cls-1" d="M108.44,223H80.8L26.52,147.48V223H.38V102.85H28l54.44,75.53V102.85h26Z"/><path d="M237.64,126.71l-23,13.22A33.23,33.23,0,0,0,164,137.35c-6.49,7-9.66,15.45-9.66,25.58s3.16,18.71,9.66,25.75a31.71,31.71,0,0,0,24.31,10.47c10.82,0,19.65-4.46,26.31-13.22l23,13.39a61.06,61.06,0,0,1-49.45,25.4c-33.13.86-62.1-28.32-61.27-61.79-.83-33.47,28.14-62.48,61.27-61.79A60.76,60.76,0,0,1,237.64,126.71Z"/><path d="M361.18,223H333.54l-54.28-75.53V223H253.13V102.85h27.64l54.44,75.53V102.85h26Z"/><path d="M476.4,127.39H409.8v23.17h61.94v23.34H409.8v24.55h67.76V223H383.33V102.85H476.4Z"/><path d="M626.41,223H598.94l-23.81-77.24-24,77.24H523.85L485.22,102.85h29.47l24.14,77.76L562,102.85h26.14l23.31,77.76,24-77.76H665Z"/><path d="M773.59,114.35l-11.16,21.11c-12.65-7-28.47-11.33-40.62-11.33-9.16.17-15.48,3.95-15.48,11.5,0,2.57,1.33,4.81,4.16,6.35s9,3.6,18.48,6.18l11.49,3.43c5.83,1.54,14.49,4.63,19,7.21s10,6.52,12.49,10.81a33.9,33.9,0,0,1,4.33,17c0,24.55-18.65,38.11-48,38.11-21.48,0-40-5.49-55.78-16.31l12-20.43a88.58,88.58,0,0,0,46.79,13.39c9,0,17-3.43,17-11.33,0-4.29-1.5-7.21-4.33-8.75-2.83-1.72-9.32-3.95-19.65-6.52l-2.83-.69c-12-3.26-18.81-5.15-26.81-9.1-11.16-5.49-17-12.7-17-26.09,0-25.75,20.81-37.76,47-37.76C743.29,101.13,759.61,105.59,773.59,114.35Z"/><path class="cls-1" d="M39,0H69.4l38.83,83.08H80.17l-26-58.27-26,58.27H0Z"/></g></g></svg>