<svg xmlns="http://www.w3.org/2000/svg" viewBox="0 0 361.18 224.74"><defs><style>.cls-1{fill:#bd0032;}</style></defs><title>NCN LOGO RED-BLK</title><g id="Layer_2" data-name="Layer 2"><g id="Layer_1-2" data-name="Layer 1"><path class="cls-1" d="M108.44,223H80.8L26.52,147.48V223H.38V102.85H28l54.44,75.53V102.85h26Z"/><path d="M237.64,126.71l-23,13.22A33.23,33.23,0,0,0,164,137.35c-6.49,7-9.66,15.45-9.66,25.58s3.16,18.71,9.66,25.75a31.71,31.71,0,0,0,24.31,10.47c10.82,0,19.65-4.46,26.31-13.22l23,13.39a61.06,61.06,0,0,1-49.45,25.4c-33.13.86-62.1-28.32-61.27-61.79-.83-33.47,28.14-62.48,61.27-61.79A60.76,60.76,0,0,1,237.64,126.71Z"/><path d="M361.18,223H333.54l-54.28-75.53V223H253.13V102.85h27.64l54.44,75.53V102.85h26Z"/><path class="cls-1" d="M39,0H69.4l38.83,83.08H80.17l-26-58.27-26,58.27H0Z"/></g></g></svg>